<svg xmlns="http://www.w3.org/2000/svg" viewBox="0 0 48 48" width="48" height="48" role="img" aria-label="Corbeille vide">
  <path d="M13 0h22a13 13 0 0 1 13 13v22a13 13 0 0 1-13 13H4a4 4 0 0 1-4-4V13A13 13 0 0 1 13 0Z" fill="#64748B"/>
  <path d="M20 18v-1.5a2.5 2.5 0 0 1 2.5-2.5h3a2.5 2.5 0 0 1 2.5 2.5V18" fill="none" stroke="#fff" stroke-width="2.6" opacity=".55"/>
  <path d="M14 18h20" stroke="#fff" stroke-width="3" stroke-linecap="round" opacity=".55"/>
  <path d="M16.5 21h15l-1.2 12.6a3 3 0 0 1-3 2.4h-6.6a3 3 0 0 1-3-2.4Z" fill="#fff"/>
</svg>
